<svg height="176" width="144" xmlns="http://www.w3.org/2000/svg">
	<mask id="wordmark">
		<polygon fill="white" points="8,0 56,0 64,8 64,32 48,32 48,24 16,24 16,32 0,32 0,8" />
		<circle cx="8" cy="8" fill="white" r="8" />
		<circle cx="56" cy="8" fill="white" r="8" />
		<polygon fill="black" points="16,8 48,8 48,16 16,16" />½

		<polygon fill="white" points="88,0 144,0 144,8 96,8 96,24 144,24 144,32 88,32 80,24 80,8" />
		<circle cx="88" cy="8" fill="white" r="8" />
		<circle cx="88" cy="24" fill="white" r="8" />

		<polygon fill="white" points="0,48 16,48 16,60 48,60 48,48 64,48 64,80 48,80 48,68 16,68 16,80 0,80" />

		<polygon fill="white" points="80,48 144,48 144,56 96,56 96,60 112,60 112,68 96,68 96,72 144,72 144,80 80,80" />

		<polygon fill="white" points="0,96 56,96 64,104 64,112 56,120 48,120 64,128 48,128 32,120 16,120 16,128 0,128" />
		<circle cx="56" cy="104" fill="white" r="8" />
		<circle cx="56" cy="112" fill="white" r="8" />
		<polygon fill="black" points="16,104 48,104 48,112 16,112" />

		<polygon fill="white" points="80,96 96,96 128,112 128,96 144,96 144,128 128,128 96,112 96,128 80,128" />

		<polygon fill="white" points="8,144 56,144 64,152 64,176 48,176 48,168 16,168 16,176 0,176 0,152" />
		<circle cx="8" cy="152" fill="white" r="8" />
		<circle cx="56" cy="152" fill="white" r="8" />
		<polygon fill="black" points="16,152 48,152 48,160 16,160" />

		<polygon fill="white" points="80,144 136,144 144,152 144,160 136,168 128,168 144,176 128,176 112,168 96,168 96,176 80,176" />
		<circle cx="136" cy="152" fill="white" r="8" />
		<circle cx="136" cy="160" fill="white" r="8" />
		<polygon fill="black" points="96,152 128,152 128,160 96,160" />
	</mask>

	<rect fill="#FFFFFF" mask="url(#wordmark)" height="100%" width="100%" x="0" y="0" />
</svg>
