<svg height="88" width="88" xmlns="http://www.w3.org/2000/svg">
	<mask id="agb">
		<polygon fill="white" points="16,8 24,8 32,80 24,80 20,44 16,80 8,80" />

		<polygon fill="white" points="32,8 64,8 64,40 80,40 80,80 32,80" />
		<polygon fill="black" points="40,16 56,16 56,48 72,48 72,72 40,72" />
		<polygon fill="white" points="44,40 56,40 60,44 56,48 56,48 56,72 52,76 48,72 48,48 44,48" />
	</mask>

	<rect fill="#4D4084" height="100%" width="100%" x="0" y="0" /> <!-- 7672 C -->
	<rect fill="#FFFFFF" height="100%" mask="url(#agb)" width="100%" x="0" y="0" />
</svg>
